# xmcd
#
# Track frame offsets:
#	150
#	15525
#	28425
#	46200
#	62850
#	78984
#	92709
#	109009
#	127609
#	142154
#	161160
#
# Disc length: 2347 seconds
#
# Revision: 1
# Processed by: cddbd v1.5.1PL2 Copyright (c) Steve Scherf et al.
# Submitted via: audiograbber 1.83.01
#
DISCID=8f09290b
DTITLE=Don Sapp - Save the Last Dance for me
DYEAR=2005
DGENRE=Country
TTITLE0=If It Was Easy
TTITLE1=Lonesomest Lonesome
TTITLE2=You're the Best Thing
TTITLE3=When You Fall In Love
TTITLE4=Girls, Women and Ladies
TTITLE5=Take Me As I Am
TTITLE6=Tell 'Em I've Gone Crazy
TTITLE7=Evil Angel
TTITLE8=Cryin' Time
TTITLE9=I won't Mention It Again
TTITLE10=Save The Last Dance For Me
EXTD=Arranged and Produced by Ken Sarkey, Cornerstone Recording Co., Oklahoma Cit
EXTD=y, OK (405) 8488400
EXTT0=
EXTT1=
EXTT2=
EXTT3=
EXTT4=
EXTT5=
EXTT6=
EXTT7=
EXTT8=
EXTT9=
EXTT10=
PLAYORDER=
